<?xml version="1.0" encoding="utf-8"?>
<!-- Generator: Adobe Illustrator 18.1.0, SVG Export Plug-In . SVG Version: 6.00 Build 0)  -->
<!DOCTYPE svg PUBLIC "-//W3C//DTD SVG 1.1//EN" "http://www.w3.org/Graphics/SVG/1.1/DTD/svg11.dtd">
<svg version="1.1" id="Layer_1" xmlns="http://www.w3.org/2000/svg" xmlns:xlink="http://www.w3.org/1999/xlink" x="0px" y="0px"
	 viewBox="0 0 470 650" enable-background="new 0 0 470 650" xml:space="preserve">
<rect x="244" y="343.4" fill="#FCF49F" width="97.8" height="26.7"/>
<g>
	<path fill="#FFFFFF" d="M91,85.5l3.1-9h1.2l3.1,9h-1.2l-0.8-2.6h-3.3l-1,2.6H91z M93.2,82.1h2.7l-1.3-3.9L93.2,82.1z"/>
	<path fill="#FFFFFF" d="M109.2,85.3c-0.8,0.3-1.6,0.4-2.3,0.4c-0.6,0-1.1-0.1-1.7-0.3c-0.5-0.2-0.9-0.5-1.2-0.8
		c-0.4-0.4-0.7-0.9-0.9-1.6c-0.2-0.6-0.3-1.2-0.3-2c0-0.6,0.1-1.3,0.3-2c0.2-0.6,0.5-1.1,0.8-1.6c0.3-0.4,0.8-0.7,1.3-0.9
		c0.5-0.2,1-0.3,1.7-0.3c0.6,0,1.4,0.1,2.2,0.3v1.1c-0.8-0.4-1.6-0.5-2.2-0.5c-0.4,0-0.8,0.1-1.1,0.3s-0.6,0.4-0.8,0.8
		c-0.2,0.4-0.4,0.8-0.5,1.3s-0.2,1-0.2,1.4c0,1.1,0.3,2,0.8,2.6c0.3,0.3,0.6,0.6,1,0.8c0.4,0.2,0.8,0.3,1.3,0.3c0.5,0,1.2-0.1,2-0.4
		v0.8H109.2z"/>
	<path fill="#FFFFFF" d="M116.5,85.5v-8.1h-3v-0.9h7.1v0.9h-3v8.1H116.5z"/>
	<path fill="#FFFFFF" d="M125.6,85.5v-0.9h2.1v-7.1h-2.1v-0.9h5.4v0.9h-2.1v7.1h2.1v0.9H125.6z"/>
	<path fill="#FFFFFF" d="M139.6,85.7c-1,0-2-0.4-2.5-1.3c-0.5-0.9-0.9-2-0.9-3.3s0.3-2.5,0.8-3.4c0.5-0.9,1.4-1.3,2.5-1.3
		c1,0,2,0.4,2.5,1.3c0.5,0.9,0.8,2,0.8,3.4c0,1.3-0.3,2.5-0.8,3.4C141.5,85.4,140.6,85.7,139.6,85.7z M139.6,84.8
		c0.7,0,1.2-0.3,1.6-0.9c0.3-0.6,0.5-1.6,0.5-2.9c0-1.2-0.2-2.3-0.5-2.9c-0.3-0.6-0.9-0.9-1.6-0.9c-0.7,0-1.2,0.3-1.6,0.9
		c-0.3,0.6-0.5,1.6-0.5,2.9c0,1.2,0.2,2.3,0.5,2.9C138.3,84.4,138.9,84.8,139.6,84.8z"/>
	<path fill="#FFFFFF" d="M148,85.5v-9h1.1l3.5,6.8l0,0v-6.8h0.9v9h-1.1l-3.6-6.8l0,0v6.8H148z"/>
	<path fill="#FFFFFF" d="M176.4,85.3c-0.8,0.3-1.6,0.4-2.3,0.4c-0.6,0-1.1-0.1-1.7-0.3s-0.9-0.5-1.2-0.8c-0.4-0.4-0.7-0.9-0.9-1.6
		c-0.2-0.6-0.3-1.2-0.3-2c0-0.6,0.1-1.3,0.3-2c0.2-0.6,0.5-1.1,0.8-1.6c0.3-0.4,0.8-0.7,1.3-0.9c0.5-0.2,1-0.3,1.7-0.3
		s1.4,0.1,2.2,0.3v1.1c-0.8-0.4-1.6-0.5-2.2-0.5c-0.4,0-0.8,0.1-1.1,0.3c-0.3,0.2-0.6,0.4-0.8,0.8s-0.4,0.8-0.5,1.3s-0.2,1-0.2,1.4
		c0,1.1,0.3,2,0.8,2.6c0.3,0.3,0.6,0.6,1,0.8c0.4,0.2,0.8,0.3,1.3,0.3s1.2-0.1,2-0.4v0.8H176.4z"/>
	<path fill="#FFFFFF" d="M184.4,85.7c-1,0-2-0.4-2.5-1.3c-0.5-0.9-0.8-2-0.8-3.4c0-1.3,0.3-2.5,0.8-3.4c0.5-0.9,1.4-1.3,2.5-1.3
		c1,0,2,0.4,2.5,1.3c0.5,0.9,0.8,2,0.8,3.4c0,1.3-0.3,2.5-0.8,3.4C186.4,85.3,185.4,85.7,184.4,85.7z M184.4,84.8
		c0.7,0,1.2-0.3,1.6-0.9c0.3-0.6,0.5-1.6,0.5-2.9c0-1.2-0.2-2.3-0.5-2.9c-0.3-0.6-0.9-0.9-1.6-0.9c-0.7,0-1.2,0.3-1.6,0.9
		c-0.3,0.6-0.5,1.6-0.5,2.9c0,1.2,0.2,2.3,0.5,2.9C183.2,84.4,183.7,84.8,184.4,84.8z"/>
	<path fill="#FFFFFF" d="M192.8,76.5h1.2v6c0,0.7,0.1,1.2,0.2,1.4s0.3,0.5,0.6,0.6c0.3,0.1,0.5,0.2,0.8,0.2c0.5,0,0.9-0.1,1.2-0.4
		c0.3-0.3,0.5-0.9,0.5-2v-5.9h1v5.8c0,0.6,0,1.1-0.1,1.4c-0.1,0.5-0.4,1-0.8,1.3c-0.4,0.3-1,0.6-1.8,0.6c-0.9,0-1.6-0.2-2.1-0.7
		c-0.2-0.3-0.4-0.6-0.5-0.9c-0.1-0.2-0.1-0.4-0.1-0.7c0-0.3,0-0.5,0-0.8v-6H192.8z"/>
	<path fill="#FFFFFF" d="M204.4,85.5v-9h1.2v8.1h4.1v0.9H204.4z"/>
	<path fill="#FFFFFF" d="M215,85.5v-9h2.4c1.3,0,2.4,0.4,3,1.1c0.6,0.7,0.9,1.9,0.9,3.2c0,0.7-0.1,1.3-0.2,2
		c-0.1,0.6-0.4,1.1-0.8,1.6c-0.4,0.4-0.8,0.7-1.3,0.9s-1.1,0.2-1.8,0.2H215z M216.3,84.5h0.6c0.8,0,1.4-0.1,1.9-0.4s0.7-0.6,0.9-1.2
		c0.2-0.6,0.3-1.2,0.3-2.1c0-0.8-0.1-1.4-0.3-2c-0.2-0.5-0.5-0.9-0.9-1.1c-0.4-0.2-1-0.4-2-0.4h-0.5
		C216.3,77.3,216.3,84.5,216.3,84.5z"/>
	<path fill="#FFFFFF" d="M237.6,85.5v-9h1.1l3.5,6.8l0,0v-6.8h0.9v9h-1.1l-3.6-6.8l0,0v6.8H237.6z"/>
	<path fill="#FFFFFF" d="M251.7,85.7c-1,0-2-0.4-2.5-1.3c-0.5-0.9-0.8-2-0.8-3.4c0-1.3,0.3-2.5,0.8-3.4c0.5-0.9,1.4-1.3,2.5-1.3
		c1,0,2,0.4,2.5,1.3c0.5,0.9,0.8,2,0.8,3.4c0,1.3-0.3,2.5-0.8,3.4C253.7,85.3,252.7,85.7,251.7,85.7z M251.7,84.8
		c0.7,0,1.2-0.3,1.6-0.9c0.3-0.6,0.5-1.6,0.5-2.9c0-1.2-0.2-2.3-0.5-2.9c-0.3-0.6-0.9-0.9-1.6-0.9c-0.7,0-1.2,0.3-1.6,0.9
		c-0.3,0.6-0.5,1.6-0.5,2.9c0,1.2,0.2,2.3,0.5,2.9C250.4,84.4,251,84.8,251.7,84.8z"/>
	<path fill="#FFFFFF" d="M262.2,85.5v-8.1h-3v-0.9h7.1v0.9h-2.9v8.1H262.2z"/>
	<path fill="#FFFFFF" d="M92.1,106.2v-9h2.5c0.5,0,0.8,0,1.1,0.1c0.4,0.1,0.8,0.3,1.1,0.7c0.3,0.4,0.4,0.8,0.4,1.2
		c0,0.4-0.1,0.8-0.4,1.2c-0.1,0.2-0.3,0.4-0.4,0.5s-0.5,0.3-0.9,0.5c0.7,0.2,1.2,0.5,1.7,0.9c0.4,0.4,0.5,0.9,0.5,1.4
		c0,0.4-0.1,0.7-0.3,1c-0.2,0.3-0.4,0.6-0.7,0.8c-0.3,0.2-0.6,0.3-0.9,0.3c-0.3,0-0.8,0.1-1.3,0.1H92.1z M93.3,101.2h0.4
		c0.3,0,0.6,0,0.9-0.1c0.3-0.1,0.5-0.2,0.8-0.3c0.2-0.1,0.4-0.3,0.5-0.5s0.2-0.5,0.2-0.7c0-0.2-0.1-0.4-0.2-0.6s-0.2-0.3-0.4-0.4
		s-0.5-0.2-0.8-0.3s-0.6,0-0.9,0h-0.5V101.2z M93.3,105.2h1c0.3,0,0.6,0,0.8,0s0.5-0.1,0.6-0.2c0.2-0.1,0.3-0.3,0.4-0.5
		s0.1-0.4,0.1-0.7c0-0.5-0.2-0.9-0.7-1.3c-0.5-0.4-1.1-0.6-2.1-0.6h-0.4v3.4H93.3z"/>
	<path fill="#FFFFFF" d="M103.5,106.2v-9h5.3v0.9h-4v2.9h3.4v0.9h-3.4v3.4h4.3v0.9h-5.6V106.2z"/>
	<path fill="#FFFFFF" d="M131.6,106c-0.8,0.3-1.6,0.4-2.3,0.4c-0.6,0-1.1-0.1-1.7-0.3s-0.9-0.5-1.2-0.8c-0.4-0.4-0.7-0.9-0.9-1.6
		c-0.2-0.6-0.3-1.2-0.3-2c0-0.6,0.1-1.3,0.3-2c0.2-0.6,0.5-1.1,0.8-1.6c0.3-0.4,0.8-0.7,1.3-0.9c0.5-0.2,1-0.3,1.7-0.3
		c0.6,0,1.4,0.1,2.2,0.3v1.1c-0.8-0.4-1.6-0.5-2.2-0.5c-0.4,0-0.8,0.1-1.1,0.3c-0.3,0.2-0.6,0.4-0.8,0.8c-0.2,0.4-0.4,0.8-0.5,1.3
		s-0.2,1-0.2,1.4c0,1.1,0.3,2,0.8,2.6c0.3,0.3,0.6,0.6,1,0.8c0.4,0.2,0.8,0.3,1.3,0.3s1.2-0.1,2-0.4v0.8H131.6z"/>
	<path fill="#FFFFFF" d="M139.6,106.4c-1,0-2-0.4-2.5-1.3c-0.5-0.9-0.8-2-0.8-3.4c0-1.3,0.3-2.5,0.8-3.4c0.5-0.9,1.4-1.3,2.5-1.3
		c1,0,2,0.4,2.5,1.3c0.5,0.9,0.8,2,0.8,3.4c0,1.3-0.3,2.5-0.8,3.4C141.6,106,140.6,106.4,139.6,106.4z M139.6,105.5
		c0.7,0,1.2-0.3,1.6-0.9s0.5-1.6,0.5-2.9c0-1.2-0.2-2.3-0.5-2.9c-0.3-0.6-0.9-0.9-1.6-0.9c-0.7,0-1.2,0.3-1.6,0.9
		c-0.3,0.6-0.5,1.6-0.5,2.9c0,1.2,0.2,2.3,0.5,2.9C138.3,105.1,138.9,105.5,139.6,105.5z"/>
	<path fill="#FFFFFF" d="M147.6,106.2v-9h1.4l1.8,5.1l0,0l1.7-5.1h1.4v9h-0.9v-7.9l0,0l-1.8,5.5h-0.9l-1.8-5.3l0,0v7.8h-0.9V106.2z"
		/>
	<path fill="#FFFFFF" d="M159.7,106.2v-9h2.5c0.5,0,0.9,0,1.3,0.1c0.5,0.1,1,0.3,1.3,0.7c0.3,0.4,0.4,0.9,0.4,1.6
		c0,0.9-0.3,1.7-0.9,2.2s-1.6,0.8-2.6,0.8h-0.8v3.6H159.7z M160.8,101.7h0.7c0.9,0,1.7-0.2,2-0.6c0.3-0.4,0.5-0.9,0.5-1.4
		c0-0.5-0.2-0.9-0.5-1.2c-0.2-0.1-0.3-0.2-0.5-0.2s-0.5-0.1-0.8-0.1H161v3.6H160.8z"/>
	<path fill="#FFFFFF" d="M170.7,106.2v-9h1.2v8.1h4.1v0.9C176.1,106.2,170.7,106.2,170.7,106.2z"/>
	<path fill="#FFFFFF" d="M181.9,106.2v-9h5.3v0.9h-4v2.9h3.4v0.9h-3.4v3.4h4.3v0.9h-5.6V106.2z"/>
	<path fill="#FFFFFF" d="M195,106.2v-8.1h-2.9v-0.9h7.1v0.9h-3v8.1H195z"/>
	<path fill="#FFFFFF" d="M204.4,106.2v-9h5.3v0.9h-4v2.9h3.4v0.9h-3.4v3.4h4.3v0.9h-5.6V106.2z"/>
	<path fill="#FFFFFF" d="M215,106.2v-9h2.4c1.3,0,2.4,0.4,3,1.1c0.6,0.7,0.9,1.9,0.9,3.2c0,0.7-0.1,1.3-0.2,2
		c-0.1,0.6-0.4,1.1-0.8,1.6c-0.4,0.4-0.8,0.7-1.3,0.9s-1.1,0.2-1.8,0.2H215z M216.3,105.2h0.6c0.8,0,1.4-0.1,1.9-0.4
		s0.7-0.6,0.9-1.2c0.2-0.6,0.3-1.2,0.3-2.1c0-0.8-0.1-1.4-0.3-2c-0.2-0.5-0.5-0.9-0.9-1.1c-0.4-0.2-1-0.4-2-0.4h-0.5
		C216.3,98,216.3,105.2,216.3,105.2z"/>
</g>
<g>
	<path fill="#FFFFFF" d="M156.2,573.7c-23.8,0-41.8-8.5-53.8-25.6c-12-17-18-40-18-68.7c0-28.8,6-51.7,17.9-68.7
		c12-17,29.9-25.6,53.8-25.6s41.9,8.5,53.8,25.6c12,17,17.9,40,17.9,68.7c0,28.8-6,51.7-18,68.7C198,565.1,180.1,573.7,156.2,573.7z
		 M156,549.8c6.4,0,12.1-2.3,17-6.7c4.9-4.5,8.9-11.4,11.7-20.8c2.9-9.4,4.3-23.6,4.3-42.6c0-19.1-1.3-33.3-4-42.5
		c-2.7-9.2-6.6-16.1-11.6-20.9c-5.1-4.7-10.8-7-17.4-7c-6.5,0-12.2,2.3-17.2,6.9c-5,4.7-8.9,11.6-11.6,20.9
		c-2.8,9.3-4.1,23.5-4.1,42.5c0,19.1,1.3,33.4,4.2,42.7c2.8,9.3,6.7,16.3,11.7,20.7C144,547.5,149.7,549.8,156,549.8z"/>
	<path fill="#FFFFFF" d="M250.7,569.2V389.7H284l65.2,115.8h0.2V389.7h23.9v179.5h-31.3L275,449.4h-0.4v119.8H250.7z"/>
</g>
<g>
	<path fill="#FFFFFF" d="M99.6,362.2V351h3.9c0.9,0,1.7,0.1,2.1,0.3c0.4,0.2,0.7,0.5,0.9,0.9c0.2,0.4,0.3,0.8,0.3,1.3
		s-0.1,1-0.4,1.4c-0.3,0.4-0.8,0.8-1.6,1.1c0.9,0.4,1.6,0.8,2,1.3c0.4,0.5,0.5,1.1,0.5,1.8c0,0.8-0.3,1.4-0.8,2.1
		c-0.6,0.5-1.4,0.8-2.6,0.8C104,362.2,99.6,362.2,99.6,362.2z M101.8,355.5h0.5c0.7,0,1.2-0.2,1.7-0.5c0.4-0.3,0.5-0.8,0.5-1.3
		c0-0.4-0.1-0.7-0.4-0.9c-0.2-0.2-0.7-0.3-1.6-0.3h-0.8v3.1H101.8z M101.8,360.7h1.2c0.7,0,1.2-0.2,1.6-0.5s0.4-0.7,0.4-1.1
		c0-0.6-0.2-1.1-0.7-1.4c-0.4-0.4-1-0.5-1.9-0.5h-0.5v3.6H101.8z"/>
	<path fill="#FFFFFF" d="M113.6,362.2V351h4.2c1,0,1.9,0.3,2.4,0.8c0.5,0.5,0.7,1.2,0.7,2.1c0,0.4-0.1,0.8-0.2,1.2
		c-0.2,0.4-0.4,0.7-0.6,1.1c-0.3,0.3-0.6,0.6-1.1,0.9l2.9,5.2h-2.6l-2.6-4.6h-0.8v4.6h-2.3V362.2z M115.9,356.2h0.4
		c0.5,0,0.9-0.1,1.2-0.2c0.3-0.1,0.6-0.4,0.8-0.8c0.2-0.3,0.3-0.7,0.3-1.1c0-0.3-0.1-0.5-0.2-0.7s-0.3-0.4-0.5-0.5s-0.7-0.2-1.4-0.2
		h-0.7v3.6H115.9z"/>
	<path fill="#FFFFFF" d="M126.8,362.2l3.6-11.2h2.3l3.1,11.2h-2.4l-0.8-2.9h-3.4l-0.9,2.9H126.8z M129.7,357.9h2.6l-1.1-4.2
		L129.7,357.9z"/>
	<path fill="#FFFFFF" d="M141.5,362.2V351h2.1l4,7.2l0,0V351h1.4v11.2h-2l-4.2-7.5l0,0v7.5H141.5z"/>
	<path fill="#FFFFFF" d="M155.2,362.2V351h4c1.6,0,2.7,0.4,3.4,1.3c0.7,0.9,1,2.3,1,3.9c0,1.2-0.2,2.3-0.5,3.1
		c-0.3,0.8-0.8,1.6-1.4,2.1s-1.7,0.7-2.9,0.7H155.2z M157.5,360.7h0.7c1,0,1.8-0.3,2.3-0.9c0.5-0.6,0.7-1.7,0.7-3.2
		c0-0.8-0.1-1.6-0.2-2.1c-0.2-0.5-0.4-1-0.9-1.4c-0.4-0.4-1.1-0.6-2-0.6h-0.5v8.3H157.5z"/>
	<path fill="#FFFFFF" d="M173.3,362.5c-1.4,0-2.6-0.5-3.3-1.6c-0.7-1-1.1-2.5-1.1-4.2s0.4-3.2,1.1-4.2s1.9-1.6,3.4-1.6
		c1.6,0,2.6,0.5,3.4,1.6c0.7,1,1.1,2.5,1.1,4.2s-0.4,3.2-1.1,4.2C175.9,362,174.8,362.5,173.3,362.5z M173.3,361
		c0.4,0,0.7-0.1,1-0.4s0.5-0.7,0.7-1.3s0.3-1.4,0.3-2.7s-0.1-2.1-0.2-2.7c-0.2-0.6-0.4-1-0.7-1.3s-0.7-0.4-1-0.4
		c-0.4,0-0.7,0.1-1,0.4s-0.5,0.7-0.7,1.3c-0.2,0.6-0.2,1.4-0.2,2.7s0.1,2.1,0.3,2.7c0.2,0.6,0.4,1,0.7,1.3
		C172.5,360.8,172.9,361,173.3,361z"/>
	<path fill="#FFFFFF" d="M183.5,362.2V351h2.1l4,7.2l0,0V351h1.4v11.2h-2l-4.2-7.5l0,0v7.5H183.5z"/>
	<path fill="#FFFFFF" d="M211.6,362.2v-1.6h2.6v-8.2h-2.6v-1.6h7.5v1.6h-2.6v8.2h2.6v1.6H211.6z"/>
	<path fill="#FFFFFF" d="M225.5,362.1v-1.9c1.1,0.5,2.3,0.7,3.3,0.7c0.7,0,1.2-0.1,1.7-0.4c0.4-0.3,0.6-0.7,0.6-1.1
		c0-0.2-0.1-0.5-0.2-0.7c-0.1-0.2-0.5-0.5-1.1-0.8l-2.1-1.1c-0.7-0.4-1.1-0.7-1.4-0.9s-0.5-0.6-0.6-0.9s-0.2-0.7-0.2-1
		c0-0.8,0.3-1.6,1-2.2c0.6-0.6,1.8-0.9,3.2-0.9c1.1,0,2.2,0.1,3.1,0.4v1.8c-1-0.4-2.1-0.6-3.1-0.6c-0.7,0-1.2,0.1-1.6,0.3
		c-0.3,0.2-0.5,0.5-0.5,0.8c0,0.2,0,0.4,0.1,0.5s0.4,0.4,0.9,0.7l2.3,1.2c1,0.5,1.7,1,2.1,1.6s0.5,1,0.5,1.8c0,0.6-0.2,1.1-0.5,1.7
		s-0.8,0.9-1.4,1.2c-0.6,0.3-1.6,0.4-2.7,0.4C227.8,362.5,226.6,362.4,225.5,362.1z"/>
	<path fill="#010101" d="M252.8,362.2l3.6-11.2h2.3l3.1,11.2h-2.4l-0.8-2.9h-3.4l-0.9,2.9H252.8z M255.8,357.9h2.6l-1.1-4.2
		L255.8,357.9z"/>
	<path fill="#010101" d="M295,362.2l3.6-11.2h2.3l3.1,11.2h-2.4l-0.8-2.9h-3.4l-0.9,2.9H295z M297.9,357.9h2.6l-1.1-4.2L297.9,357.9
		z"/>
	<path fill="#010101" d="M312.2,362.2v-4.8l-3.5-6.5h2.6l2.5,4.7l2.6-4.7h1.8l-3.6,6.5v4.8H312.2z"/>
	<path fill="#010101" d="M323.5,362.1v-1.9c1.1,0.5,2.3,0.7,3.3,0.7c0.7,0,1.2-0.1,1.7-0.4s0.6-0.7,0.6-1.1c0-0.2-0.1-0.5-0.2-0.7
		s-0.5-0.5-1.1-0.8l-2.1-1.1c-0.7-0.4-1.1-0.7-1.4-0.9s-0.5-0.6-0.6-0.9s-0.2-0.7-0.2-1c0-0.8,0.3-1.6,1-2.2s1.8-0.9,3.2-0.9
		c1.1,0,2.2,0.1,3.1,0.4v1.8c-1-0.4-2.1-0.6-3.1-0.6c-0.7,0-1.2,0.1-1.6,0.3s-0.5,0.5-0.5,0.8c0,0.2,0,0.4,0.1,0.5
		c0.1,0.2,0.4,0.4,0.9,0.7l2.3,1.2c1,0.5,1.7,1,2.1,1.6s0.5,1,0.5,1.8c0,0.6-0.2,1.1-0.5,1.7s-0.8,0.9-1.4,1.2
		c-0.6,0.3-1.6,0.4-2.7,0.4C325.9,362.5,324.8,362.4,323.5,362.1z"/>
	<path fill="#010101" d="M267.5,362.2V351h2.3v9.7h5.3v1.6h-7.6V362.2z"/>
	<path fill="#010101" d="M282.6,362.2l-1.4-11.2h2l0.9,7.1l0,0l1.2-4.1h1.4l1.2,4.3l0,0l0.9-7.3h1.4l-1.4,11.2h-1.7l-1.4-5.4l0,0
		l-1.7,5.4H282.6z"/>
</g>
<polygon fill="#4A4745" points="99.3,192.7 97,188.8 94.8,184.7 99.3,184.7 103.9,184.7 101.6,188.8 "/>
<rect x="98.5" y="166.4" fill="#4A4745" width="1.8" height="19.5"/>
</svg>
