<?xml version="1.0" encoding="utf-8"?>
<!-- Generator: Adobe Illustrator 18.1.0, SVG Export Plug-In . SVG Version: 6.00 Build 0)  -->
<!DOCTYPE svg PUBLIC "-//W3C//DTD SVG 1.1//EN" "http://www.w3.org/Graphics/SVG/1.1/DTD/svg11.dtd">
<svg version="1.1" id="Layer_1" xmlns="http://www.w3.org/2000/svg" xmlns:xlink="http://www.w3.org/1999/xlink" x="0px" y="0px"
	 viewBox="0 0 800 800" enable-background="new 0 0 800 800" xml:space="preserve">
<g opacity="0.4">
	<g>
		<path fill="#FFFFFF" d="M398.5,798.9c-0.9,0-1.5-0.7-1.5-1.6l0,0c0-0.9,0.7-1.6,1.6-1.5l0,0c0.8,0,1.5,0.7,1.5,1.6l0,0
			C400,798.2,399.3,798.9,398.5,798.9L398.5,798.9C398.5,798.9,398.5,798.9,398.5,798.9z M428.1,796.3c-0.1-0.9,0.6-1.6,1.4-1.7l0,0
			c0.9-0.1,1.6,0.6,1.7,1.4l0,0c0.1,0.9-0.6,1.6-1.4,1.7l0,0c0,0-0.1,0-0.1,0l0,0C428.9,797.8,428.2,797.1,428.1,796.3z
			 M367.2,797.5c-0.9-0.1-1.5-0.8-1.4-1.7l0,0c0.1-0.9,0.8-1.5,1.7-1.4l0,0c0.9,0.1,1.5,0.8,1.4,1.7l0,0c-0.1,0.8-0.8,1.4-1.6,1.4
			l0,0C367.2,797.5,367.2,797.5,367.2,797.5z M459.2,792.9c-0.1-0.8,0.4-1.6,1.3-1.8l0,0c0.8-0.1,1.6,0.5,1.8,1.3l0,0
			c0.1,0.8-0.4,1.6-1.3,1.8l0,0c-0.1,0-0.2,0-0.2,0l0,0C460,794.2,459.3,793.7,459.2,792.9z M336,793.8c-0.8-0.1-1.4-0.9-1.3-1.8
			l0,0c0.1-0.8,0.9-1.4,1.8-1.3l0,0c0.8,0.1,1.4,0.9,1.3,1.8l0,0c-0.1,0.8-0.8,1.3-1.5,1.3l0,0C336.2,793.8,336.1,793.8,336,793.8z
			 M489.9,787.1c-0.2-0.8,0.3-1.7,1.1-1.9l0,0c0.8-0.2,1.7,0.3,1.9,1.2l0,0c0.2,0.8-0.3,1.7-1.2,1.9l0,0c-0.1,0-0.2,0-0.4,0l0,0
			C490.7,788.3,490,787.8,489.9,787.1z M305.3,787.5c-0.8-0.2-1.3-1-1.1-1.9l0,0c0.2-0.8,1-1.3,1.9-1.1l0,0c0.8,0.2,1.3,1,1.1,1.9
			l0,0c-0.2,0.7-0.8,1.2-1.5,1.2l0,0C305.5,787.6,305.4,787.6,305.3,787.5z M520,778.9c-0.3-0.8,0.2-1.7,1-2l0,0
			c0.8-0.3,1.7,0.2,2,1l0,0c0.3,0.8-0.2,1.7-1,1.9l0,0c-0.2,0.1-0.3,0.1-0.5,0.1l0,0C520.8,779.9,520.2,779.5,520,778.9z
			 M275.2,778.9c-0.8-0.3-1.3-1.1-1-2l0,0c0.3-0.8,1.1-1.3,2-1l0,0c0.8,0.3,1.3,1.1,1,2l0,0c-0.2,0.7-0.8,1.1-1.5,1.1l0,0
			C275.5,779,275.3,779,275.2,778.9z M549.4,768.3c-0.3-0.8,0.1-1.7,0.8-2l0,0c0.8-0.3,1.7,0.1,2,0.8l0,0c0.3,0.8-0.1,1.7-0.8,2l0,0
			l0,0l0,0c-0.2,0.1-0.4,0.1-0.6,0.1l0,0C550.2,769.2,549.6,768.9,549.4,768.3z M245.8,767.9c-0.8-0.3-1.2-1.2-0.8-2l0,0
			c0.3-0.8,1.2-1.2,2-0.8l0,0c0.8,0.3,1.2,1.2,0.8,2l0,0c-0.3,0.6-0.8,1-1.4,1l0,0C246.2,768.1,246,768,245.8,767.9z M577.8,755.4
			c-0.4-0.8-0.1-1.7,0.7-2.1l0,0c0.8-0.4,1.7-0.1,2.1,0.7l0,0c0.4,0.8,0.1,1.7-0.7,2.1l0,0c-0.2,0.1-0.5,0.2-0.7,0.2l0,0
			C578.6,756.2,578.1,755.9,577.8,755.4z M217.3,754.7c-0.8-0.4-1.1-1.3-0.7-2.1l0,0c0.4-0.8,1.3-1.1,2.1-0.7l0,0
			c0.8,0.4,1.1,1.3,0.7,2.1l0,0c-0.3,0.5-0.8,0.8-1.4,0.8l0,0C217.8,754.8,217.6,754.8,217.3,754.7z M605.1,740.3
			c-0.4-0.7-0.2-1.7,0.5-2.1l0,0c0.7-0.4,1.7-0.2,2.1,0.5l0,0c0.4,0.7,0.2,1.7-0.5,2.1l0,0c-0.3,0.2-0.5,0.2-0.8,0.2l0,0
			C605.9,741.1,605.4,740.8,605.1,740.3z M190,739.2c-0.7-0.5-1-1.4-0.5-2.1l0,0c0.5-0.7,1.4-1,2.1-0.5l0,0c0.7,0.5,1,1.4,0.5,2.1
			l0,0c-0.3,0.5-0.8,0.7-1.3,0.7l0,0C190.6,739.4,190.3,739.3,190,739.2z M631.2,723.1c-0.5-0.7-0.3-1.7,0.4-2.2l0,0
			c0.7-0.5,1.7-0.3,2.2,0.4l0,0c0.5,0.7,0.3,1.7-0.4,2.2l0,0c-0.3,0.2-0.6,0.3-0.9,0.3l0,0C632,723.8,631.5,723.5,631.2,723.1z
			 M164.1,721.6c-0.7-0.5-0.8-1.5-0.3-2.2l0,0c0.5-0.7,1.5-0.8,2.2-0.3l0,0c0.7,0.5,0.8,1.5,0.3,2.2l0,0c-0.3,0.4-0.8,0.6-1.3,0.6
			l0,0C164.7,721.9,164.3,721.8,164.1,721.6z M655.9,704c-0.6-0.7-0.5-1.6,0.2-2.2l0,0c0.7-0.6,1.6-0.5,2.2,0.2l0,0
			c0.6,0.7,0.5,1.6-0.2,2.2l0,0l0,0l0,0c-0.3,0.2-0.7,0.4-1,0.4l0,0C656.6,704.5,656.2,704.3,655.9,704z M139.5,702L139.5,702
			L139.5,702c-0.7-0.6-0.7-1.5-0.2-2.2l0,0c0.6-0.7,1.5-0.7,2.2-0.2l0,0c0.6,0.6,0.7,1.5,0.2,2.2l0,0c-0.3,0.4-0.7,0.5-1.2,0.5l0,0
			C140.2,702.4,139.8,702.3,139.5,702z M678.9,682.9c-0.6-0.6-0.6-1.6,0-2.2l0,0c0.6-0.6,1.6-0.6,2.2,0l0,0c0.6,0.6,0.6,1.6,0,2.2
			l0,0c-0.3,0.3-0.7,0.4-1.1,0.4l0,0C679.6,683.4,679.2,683.2,678.9,682.9z M116.6,680.6c-0.6-0.6-0.6-1.6,0-2.2l0,0
			c0.6-0.6,1.6-0.6,2.2,0l0,0c0.6,0.6,0.6,1.6,0,2.2l0,0c-0.3,0.3-0.7,0.5-1.1,0.5l0,0C117.3,681.1,116.9,681,116.6,680.6z
			 M700.3,660.1c-0.7-0.6-0.7-1.5-0.2-2.2l0,0c0.6-0.7,1.5-0.7,2.2-0.2l0,0c0.7,0.6,0.7,1.5,0.2,2.2l0,0c-0.3,0.4-0.7,0.5-1.2,0.5
			l0,0C701,660.5,700.6,660.4,700.3,660.1z M95.4,657.5L95.4,657.5L95.4,657.5c-0.6-0.7-0.5-1.6,0.2-2.2l0,0
			c0.7-0.5,1.6-0.5,2.2,0.2l0,0c0.5,0.7,0.5,1.6-0.2,2.2l0,0c-0.3,0.2-0.7,0.4-1,0.4l0,0C96.2,658.1,95.7,657.9,95.4,657.5z
			 M719.8,635.7c-0.7-0.5-0.8-1.5-0.3-2.2l0,0c0.5-0.7,1.5-0.8,2.2-0.3l0,0c0.7,0.5,0.8,1.5,0.3,2.2l0,0c0,0,0,0,0,0l0,0
			c-0.3,0.4-0.8,0.6-1.3,0.6l0,0C720.4,636,720.1,635.9,719.8,635.7z M76.1,632.8L76.1,632.8L76.1,632.8c-0.5-0.7-0.3-1.7,0.4-2.2
			l0,0c0.7-0.5,1.7-0.4,2.2,0.4l0,0c0.5,0.7,0.3,1.7-0.4,2.2l0,0c-0.3,0.2-0.6,0.3-0.9,0.3l0,0C76.9,633.5,76.4,633.2,76.1,632.8z
			 M737.4,609.9c-0.7-0.5-1-1.4-0.5-2.1l0,0c0.4-0.7,1.4-1,2.1-0.5l0,0c0.7,0.5,1,1.4,0.5,2.1l0,0c-0.3,0.5-0.8,0.7-1.3,0.7l0,0
			C737.9,610.1,737.6,610,737.4,609.9z M58.8,606.7c-0.4-0.7-0.2-1.7,0.5-2.1l0,0c0.7-0.4,1.7-0.2,2.1,0.5l0,0
			c0.4,0.7,0.2,1.7-0.5,2.1l0,0c-0.3,0.2-0.5,0.2-0.8,0.2l0,0C59.6,607.4,59.1,607.2,58.8,606.7z M752.9,582.7
			c-0.8-0.4-1.1-1.3-0.7-2.1l0,0c0.4-0.8,1.3-1.1,2.1-0.7l0,0c0.8,0.4,1.1,1.3,0.7,2.1l0,0c-0.3,0.5-0.8,0.8-1.4,0.8l0,0
			C753.3,582.9,753.1,582.8,752.9,582.7z M43.6,579.3c-0.4-0.8-0.1-1.7,0.7-2.1l0,0c0.8-0.4,1.7-0.1,2.1,0.7l0,0
			c0.4,0.8,0.1,1.7-0.7,2.1l0,0c-0.2,0.1-0.5,0.2-0.7,0.2l0,0C44.5,580.1,43.9,579.8,43.6,579.3z M766.1,554.4
			c-0.8-0.3-1.2-1.2-0.8-2l0,0c0.3-0.8,1.2-1.2,2-0.8l0,0c0.8,0.3,1.2,1.2,0.8,2l0,0c-0.2,0.6-0.8,1-1.4,1l0,0
			C766.5,554.6,766.3,554.5,766.1,554.4z M30.7,550.8c-0.3-0.8,0.1-1.7,0.9-2l0,0c0.8-0.3,1.7,0.1,2,0.8l0,0c0.3,0.8-0.1,1.7-0.8,2
			l0,0c-0.2,0.1-0.4,0.1-0.6,0.1l0,0C31.5,551.7,30.9,551.4,30.7,550.8z M777.1,525.2c-0.8-0.3-1.3-1.1-1-2l0,0c0.3-0.8,1.1-1.3,2-1
			l0,0c0.8,0.3,1.3,1.1,1,2l0,0c-0.2,0.7-0.8,1.1-1.5,1.1l0,0C777.5,525.3,777.3,525.2,777.1,525.2z M20,521.3
			C20,521.3,20,521.3,20,521.3L20,521.3c-0.3-0.8,0.2-1.7,1-2l0,0c0.8-0.3,1.7,0.2,1.9,1l0,0c0.3,0.8-0.2,1.7-1,2l0,0
			c-0.2,0.1-0.3,0.1-0.5,0.1l0,0C20.8,522.4,20.2,521.9,20,521.3z M785.8,495.2c-0.8-0.2-1.3-1-1.1-1.9v0c0.2-0.8,1-1.4,1.9-1.1l0,0
			c0.8,0.2,1.3,1,1.1,1.9l0,0l0,0l0,0c-0.2,0.7-0.8,1.2-1.5,1.2l0,0C786,495.2,785.9,495.2,785.8,495.2z M11.6,491
			c-0.2-0.8,0.3-1.7,1.2-1.9l0,0c0.8-0.2,1.7,0.3,1.9,1.2l0,0c0.2,0.8-0.3,1.7-1.2,1.9l0,0c-0.1,0-0.2,0-0.4,0l0,0
			C12.4,492.2,11.8,491.8,11.6,491z M792,464.6c-0.8-0.1-1.4-0.9-1.3-1.8l0,0c0.1-0.8,0.9-1.4,1.8-1.3l0,0c0.8,0.1,1.4,0.9,1.3,1.8
			l0,0c-0.1,0.8-0.8,1.3-1.5,1.3l0,0C792.2,464.6,792.1,464.6,792,464.6z M5.7,460.3c-0.1-0.8,0.5-1.6,1.3-1.8l0,0
			c0.8-0.1,1.6,0.5,1.8,1.3l0,0c0.1,0.8-0.5,1.6-1.3,1.8l0,0c-0.1,0-0.2,0-0.2,0l0,0C6.5,461.6,5.8,461,5.7,460.3z M795.9,433.6
			c-0.9-0.1-1.5-0.8-1.4-1.7l0,0c0.1-0.9,0.8-1.5,1.7-1.4l0,0c0.9,0.1,1.5,0.8,1.4,1.7l0,0l0,0l0,0c-0.1,0.8-0.7,1.4-1.5,1.4l0,0
			C795.9,433.6,795.9,433.6,795.9,433.6z M2.2,429.1L2.2,429.1L2.2,429.1c-0.1-0.8,0.6-1.6,1.4-1.7l0,0c0.9-0.1,1.6,0.6,1.7,1.4l0,0
			c0.1,0.8-0.6,1.6-1.4,1.7l0,0c0,0-0.1,0-0.1,0l0,0C3,430.6,2.3,429.9,2.2,429.1z M797.2,402.4c-0.9,0-1.6-0.7-1.6-1.6l0,0
			c0-0.9,0.7-1.6,1.6-1.5l0,0c0.9,0,1.6,0.7,1.6,1.6l0,0C798.8,401.7,798.1,402.4,797.2,402.4L797.2,402.4L797.2,402.4z M2.8,399.3
			c-0.9,0-1.6-0.7-1.6-1.6l0,0c0-0.9,0.7-1.6,1.6-1.5l0,0c0.9,0,1.6,0.7,1.6,1.6l0,0C4.3,398.6,3.6,399.3,2.8,399.3L2.8,399.3
			L2.8,399.3z M794.5,369.7L794.5,369.7c-0.1-0.8,0.6-1.6,1.4-1.7l0,0c0.9-0.1,1.6,0.6,1.7,1.4l0,0c0.1,0.9-0.6,1.6-1.4,1.7l0,0
			c0,0-0.1,0-0.1,0l0,0C795.3,371.2,794.6,370.5,794.5,369.7z M4,368.1c-0.9-0.1-1.5-0.8-1.4-1.7l0,0c0.1-0.8,0.8-1.5,1.7-1.4l0,0
			c0.8,0.1,1.5,0.8,1.4,1.7l0,0c-0.1,0.8-0.7,1.4-1.6,1.4l0,0C4.1,368.1,4.1,368.1,4,368.1z M791,338.8L791,338.8
			c-0.1-0.8,0.5-1.6,1.3-1.8l0,0c0.8-0.1,1.6,0.4,1.8,1.3l0,0l0,0l0,0c0.1,0.8-0.5,1.6-1.3,1.8l0,0c-0.1,0-0.2,0-0.2,0l0,0
			C791.8,340.1,791.1,339.6,791,338.8z M7.7,337.1c-0.8-0.1-1.4-0.9-1.3-1.8l0,0c0.1-0.8,0.9-1.4,1.8-1.3l0,0
			c0.8,0.1,1.4,0.9,1.3,1.8l0,0c-0.1,0.8-0.8,1.3-1.5,1.3l0,0C7.9,337.1,7.8,337.1,7.7,337.1z M785,308.3L785,308.3
			c-0.2-0.8,0.3-1.7,1.1-1.9l0,0c0.8-0.2,1.7,0.3,1.9,1.1l0,0l0,0l0,0c0.2,0.8-0.3,1.7-1.1,1.9l0,0c-0.1,0-0.2,0-0.4,0l0,0
			C785.8,309.5,785.2,309,785,308.3z M13.8,306.5c-0.8-0.2-1.3-1-1.1-1.9l0,0c0.2-0.8,1-1.3,1.9-1.1l0,0c0.8,0.2,1.3,1,1.1,1.9l0,0
			c-0.2,0.7-0.8,1.2-1.5,1.2l0,0C14.1,306.5,14,306.5,13.8,306.5z M776.6,278.3c-0.3-0.8,0.2-1.7,1-1.9l0,0c0.8-0.3,1.7,0.2,1.9,1
			l0,0c0.3,0.8-0.2,1.7-1,2l0,0c-0.2,0.1-0.3,0.1-0.5,0.1l0,0C777.4,279.4,776.8,279,776.6,278.3z M22.4,276.5c-0.8-0.3-1.3-1.1-1-2
			l0,0l0,0l0,0c0.3-0.8,1.1-1.3,2-1l0,0c0.8,0.3,1.3,1.1,1,2l0,0c-0.2,0.6-0.8,1.1-1.5,1.1l0,0C22.7,276.5,22.5,276.5,22.4,276.5z
			 M765.9,249.1L765.9,249.1c-0.3-0.8,0.1-1.7,0.8-2l0,0c0.8-0.3,1.7,0.1,2,0.8l0,0l0,0l0,0c0.3,0.8-0.1,1.7-0.8,2l0,0
			c-0.2,0.1-0.4,0.1-0.6,0.1l0,0C766.7,250.1,766.1,249.7,765.9,249.1z M33.3,247.1c-0.8-0.3-1.2-1.2-0.8-2l0,0
			c0.3-0.8,1.2-1.2,2-0.8l0,0c0.8,0.3,1.1,1.3,0.8,2l0,0c-0.2,0.6-0.8,1-1.4,1l0,0C33.7,247.3,33.4,247.2,33.3,247.1z M752.9,220.9
			c-0.4-0.8-0.1-1.7,0.7-2.1l0,0c0.8-0.4,1.7-0.1,2.1,0.7l0,0c0.4,0.8,0.1,1.7-0.7,2.1l0,0c-0.2,0.1-0.5,0.2-0.7,0.2l0,0
			C753.7,221.7,753.2,221.4,752.9,220.9z M46.4,218.8c-0.8-0.4-1.1-1.3-0.7-2.1l0,0c0.4-0.8,1.3-1.1,2.1-0.7l0,0
			c0.8,0.4,1.1,1.3,0.7,2.1l0,0c-0.3,0.5-0.8,0.8-1.4,0.8l0,0C46.9,219,46.7,218.9,46.4,218.8z M737.7,193.8
			c-0.5-0.7-0.2-1.7,0.5-2.1l0,0c0.7-0.5,1.7-0.2,2.1,0.5l0,0c0.4,0.7,0.2,1.7-0.5,2.1l0,0c-0.3,0.1-0.5,0.2-0.8,0.2l0,0
			C738.5,194.5,738,194.2,737.7,193.8z M61.8,191.6c-0.7-0.5-1-1.4-0.5-2.1l0,0c0.4-0.7,1.4-1,2.1-0.5l0,0c0.7,0.5,1,1.4,0.5,2.1
			l0,0c-0.3,0.5-0.8,0.7-1.3,0.7l0,0C62.3,191.8,62,191.8,61.8,191.6z M720.5,167.9c-0.5-0.7-0.4-1.7,0.3-2.2l0,0
			c0.7-0.5,1.7-0.4,2.2,0.3l0,0c0.5,0.7,0.4,1.7-0.3,2.2l0,0c-0.3,0.2-0.6,0.3-0.9,0.3l0,0C721.2,168.5,720.8,168.3,720.5,167.9z
			 M79.2,165.7c-0.7-0.5-0.8-1.5-0.3-2.2l0,0c0.5-0.7,1.5-0.8,2.2-0.3l0,0c0.7,0.5,0.8,1.5,0.3,2.2l0,0c-0.3,0.4-0.8,0.6-1.3,0.6
			l0,0C79.8,166,79.5,165.9,79.2,165.7z M701.2,143.4c-0.6-0.7-0.5-1.6,0.2-2.2l0,0c0.7-0.6,1.6-0.5,2.2,0.2l0,0
			c0.6,0.7,0.5,1.6-0.2,2.2l0,0c-0.3,0.2-0.7,0.4-1,0.4l0,0C701.9,144,701.5,143.8,701.2,143.4z M98.7,141.2
			c-0.7-0.6-0.7-1.5-0.2-2.2l0,0c0.6-0.7,1.5-0.7,2.2-0.2l0,0c0.7,0.6,0.7,1.5,0.2,2.2l0,0c-0.3,0.4-0.7,0.5-1.2,0.5l0,0
			C99.3,141.6,99,141.5,98.7,141.2z M680.1,120.6c-0.6-0.6-0.6-1.6,0-2.2l0,0c0.6-0.6,1.6-0.6,2.2,0l0,0c0.6,0.6,0.6,1.6,0,2.2l0,0
			c-0.3,0.3-0.7,0.5-1.1,0.5l0,0C680.8,121,680.4,120.9,680.1,120.6z M119.9,118.3c-0.6-0.6-0.6-1.6,0-2.2l0,0
			c0.6-0.6,1.6-0.6,2.2,0l0,0c0.6,0.6,0.6,1.6,0,2.2l0,0c-0.3,0.3-0.7,0.4-1.1,0.4l0,0C120.6,118.8,120.2,118.6,119.9,118.3z
			 M657.3,99.4c-0.7-0.6-0.7-1.5-0.2-2.2l0,0c0.6-0.7,1.5-0.7,2.2-0.2l0,0c0.7,0.6,0.7,1.5,0.2,2.2l0,0c-0.3,0.4-0.7,0.5-1.2,0.5
			l0,0C657.9,99.8,657.6,99.7,657.3,99.4z M142.9,97.2c-0.5-0.7-0.5-1.6,0.2-2.2l0,0c0.7-0.5,1.6-0.5,2.2,0.2l0,0
			c0.6,0.7,0.5,1.6-0.2,2.2l0,0c-0.3,0.2-0.7,0.4-1,0.4l0,0C143.7,97.7,143.2,97.6,142.9,97.2z M632.9,80.1L632.9,80.1
			c-0.7-0.5-0.8-1.5-0.3-2.2l0,0c0.5-0.7,1.5-0.8,2.2-0.3l0,0c0.7,0.5,0.8,1.5,0.3,2.2l0,0c-0.3,0.4-0.8,0.6-1.3,0.6l0,0
			C633.5,80.4,633.2,80.3,632.9,80.1z M167.5,77.9c-0.5-0.7-0.3-1.7,0.4-2.2l0,0l0,0l0,0c0.7-0.5,1.7-0.3,2.2,0.4l0,0
			c0.5,0.7,0.3,1.7-0.4,2.2l0,0c-0.3,0.2-0.6,0.3-0.9,0.3l0,0C168.3,78.6,167.8,78.3,167.5,77.9z M607,62.8c-0.7-0.5-1-1.4-0.5-2.1
			l0,0c0.4-0.7,1.4-1,2.1-0.5l0,0c0.7,0.4,1,1.4,0.5,2.1l0,0c-0.3,0.5-0.8,0.7-1.3,0.7l0,0C607.6,63,607.3,62.9,607,62.8z
			 M193.5,60.6c-0.4-0.7-0.2-1.7,0.5-2.1l0,0c0.7-0.4,1.7-0.2,2.1,0.5l0,0c0.4,0.7,0.2,1.7-0.5,2.1l0,0c-0.2,0.2-0.5,0.2-0.8,0.2
			l0,0C194.3,61.4,193.8,61.1,193.5,60.6z M579.9,47.5c-0.8-0.4-1.1-1.3-0.7-2.1l0,0c0.4-0.8,1.3-1.1,2.1-0.7l0,0
			c0.8,0.4,1.1,1.3,0.7,2.1l0,0c-0.3,0.5-0.8,0.8-1.4,0.8l0,0C580.4,47.7,580.1,47.7,579.9,47.5z M220.8,45.4
			c-0.4-0.8-0.1-1.7,0.7-2.1l0,0c0.8-0.4,1.7-0.1,2.1,0.7l0,0c0.4,0.8,0.1,1.7-0.7,2.1l0,0c-0.2,0.1-0.5,0.2-0.7,0.2l0,0
			C221.6,46.3,221,46,220.8,45.4z M551.6,34.5L551.6,34.5c-0.8-0.3-1.2-1.2-0.8-2l0,0c0.3-0.8,1.2-1.2,2-0.8l0,0c0,0,0,0,0,0l0,0
			c0.8,0.3,1.2,1.2,0.8,2l0,0c-0.2,0.6-0.8,1-1.4,1l0,0C552,34.6,551.8,34.6,551.6,34.5z M249.2,32.5c-0.3-0.8,0.1-1.7,0.8-2l0,0
			l0,0l0,0c0.8-0.3,1.7,0.1,2,0.8l0,0c0.3,0.8-0.1,1.7-0.9,2l0,0c-0.2,0.1-0.4,0.1-0.6,0.1l0,0C250,33.4,249.4,33.1,249.2,32.5z
			 M522.4,23.7L522.4,23.7c-0.8-0.3-1.3-1.1-1-1.9l0,0c0.3-0.8,1.1-1.3,1.9-1l0,0c0,0,0,0,0,0l0,0c0.8,0.3,1.3,1.1,1,2l0,0
			c-0.2,0.7-0.8,1.1-1.5,1.1l0,0C522.8,23.8,522.6,23.7,522.4,23.7z M278.5,21.7c-0.3-0.8,0.2-1.7,1-1.9l0,0l0,0l0,0
			c0.8-0.3,1.7,0.2,1.9,1l0,0c0.3,0.8-0.2,1.7-1,1.9l0,0c-0.2,0.1-0.3,0.1-0.5,0.1l0,0C279.3,22.8,278.7,22.4,278.5,21.7z
			 M492.5,15.2c-0.8-0.2-1.3-1-1.1-1.9l0,0c0.2-0.8,1-1.3,1.9-1.1l0,0l0,0l0,0c0.8,0.2,1.3,1,1.1,1.9l0,0c-0.2,0.7-0.8,1.2-1.5,1.2
			l0,0C492.7,15.3,492.6,15.3,492.5,15.2z M308.6,13.4c-0.2-0.8,0.3-1.7,1.2-1.9l0,0c0,0,0,0,0,0l0,0c0.8-0.2,1.7,0.3,1.9,1.2l0,0
			c0.2,0.8-0.3,1.7-1.2,1.9l0,0c-0.1,0-0.2,0-0.4,0l0,0C309.4,14.6,308.8,14.1,308.6,13.4z M462,9.2L462,9.2
			c-0.8-0.1-1.4-0.9-1.3-1.8l0,0c0.1-0.8,0.9-1.4,1.8-1.3l0,0l0,0l0,0c0.8,0.1,1.4,0.9,1.3,1.8l0,0c-0.1,0.8-0.8,1.3-1.5,1.3l0,0
			C462.1,9.2,462.1,9.2,462,9.2z M339.2,7.4c-0.1-0.8,0.5-1.6,1.3-1.8l0,0c0.8-0.1,1.6,0.5,1.8,1.3l0,0c0.1,0.8-0.5,1.6-1.3,1.8l0,0
			c-0.1,0-0.2,0-0.2,0l0,0C340,8.7,339.4,8.2,339.2,7.4z M431.1,5.6c-0.9-0.1-1.5-0.8-1.4-1.7l0,0c0.1-0.9,0.8-1.5,1.7-1.4l0,0l0,0
			l0,0c0.9,0.1,1.5,0.8,1.4,1.7l0,0c-0.1,0.8-0.7,1.4-1.5,1.4l0,0C431.2,5.6,431.1,5.6,431.1,5.6z M370.3,3.9
			c-0.1-0.9,0.6-1.6,1.4-1.7l0,0l0,0l0,0c0.9-0.1,1.6,0.6,1.7,1.4l0,0c0.1,0.8-0.6,1.6-1.4,1.7l0,0c0,0-0.1,0-0.1,0l0,0
			C371,5.4,370.3,4.7,370.3,3.9z M398.4,2.8c0-0.9,0.7-1.6,1.6-1.6l0,0c0.9,0,1.6,0.7,1.6,1.6l0,0c0,0.9-0.7,1.6-1.6,1.6l0,0
			C399.1,4.4,398.4,3.7,398.4,2.8z"/>
	</g>
</g>
</svg>
