<?xml version="1.0" encoding="utf-8"?>
<!-- Generator: Adobe Illustrator 18.1.0, SVG Export Plug-In . SVG Version: 6.00 Build 0)  -->
<!DOCTYPE svg PUBLIC "-//W3C//DTD SVG 1.1//EN" "http://www.w3.org/Graphics/SVG/1.1/DTD/svg11.dtd">
<svg version="1.1" id="Layer_1" xmlns="http://www.w3.org/2000/svg" xmlns:xlink="http://www.w3.org/1999/xlink" x="0px" y="0px"
	 viewBox="0 0 490 525" enable-background="new 0 0 490 525" xml:space="preserve">
<g>
	<g>
		<path fill="#FFFFFF" d="M15.4,17.9v-7.5h-2.6V9.2h6.9v1.2h-2.6v7.5H15.4z"/>
		<path fill="#FFFFFF" d="M23.3,17.9v-5.2H21v-1.2h4v6.4H23.3z M23.3,10.4V8.7h1.7v1.7H23.3z"/>
		<path fill="#FFFFFF" d="M31.4,17.9H30v-4.2c0-0.3,0-0.5-0.1-0.6c0-0.1-0.1-0.1-0.2-0.1c-0.2,0-0.5,0.3-0.7,0.8v4.1h-1.4v-6.4H29
			L29,12.8h0.1c0.1-0.4,0.3-0.7,0.5-1c0.2-0.3,0.5-0.4,0.8-0.4c0.3,0,0.5,0.1,0.7,0.3c0.2,0.2,0.3,0.6,0.4,1.1h0.1
			c0.1-0.4,0.3-0.7,0.5-1c0.2-0.3,0.5-0.4,0.7-0.4c0.2,0,0.4,0.1,0.6,0.2s0.3,0.3,0.4,0.6s0.1,0.7,0.1,1.5v4.3h-1.4v-4.2
			c0-0.3,0-0.5-0.1-0.6c0-0.1-0.1-0.1-0.2-0.1c-0.2,0-0.5,0.3-0.7,0.8V17.9z"/>
		<path fill="#FFFFFF" d="M41,17.6c-1,0.3-1.9,0.4-2.6,0.4c-0.7,0-1.3-0.1-1.9-0.4c-0.5-0.3-1-0.7-1.3-1.2s-0.4-1.1-0.4-1.7
			c0-0.6,0.1-1.2,0.4-1.7s0.7-0.9,1.2-1.2c0.5-0.3,1.1-0.4,1.7-0.4c0.9,0,1.6,0.3,2.1,0.8c0.5,0.6,0.8,1.3,0.8,2.3v0.6h-4.3
			c0.1,0.5,0.3,0.9,0.7,1.2s0.9,0.4,1.4,0.4c0.7,0,1.4-0.2,2.2-0.5V17.6z M36.7,14.1h2.7c0-1-0.4-1.5-1.3-1.5c-0.4,0-0.7,0.1-1,0.4
			C36.9,13.2,36.7,13.6,36.7,14.1z"/>
	</g>
	<g>
		<path fill="#FFFFFF" d="M173.7,17.9V17h2.3v-6.7l-2.3,0.5v-0.7l3.5-1.1v8h2.3v0.9H173.7z"/>
		<path fill="#FFFFFF" d="M181.4,17.9v-1c0.7,0.3,1.2,0.4,1.6,0.4c0.5,0,0.8-0.2,1.2-0.5s0.5-0.8,0.5-1.4c0-0.6-0.2-1.1-0.6-1.5
			c-0.4-0.3-1.1-0.5-1.9-0.5c-0.1,0-0.3,0-0.5,0V9.2h4.1v1h-3.1v2.3c1.1,0,1.9,0.3,2.5,0.8c0.6,0.5,0.9,1.2,0.9,2.1
			c0,0.8-0.3,1.5-0.8,2s-1.2,0.8-2,0.8C182.6,18.1,182.1,18,181.4,17.9z"/>
		<path fill="#FFFFFF" d="M190.7,18.1c-1,0-1.7-0.4-2.2-1.3s-0.8-2-0.8-3.2c0-1.3,0.2-2.3,0.7-3.2s1.2-1.3,2.2-1.3
			c1,0,1.7,0.4,2.2,1.3s0.8,2,0.8,3.2c0,1.3-0.3,2.4-0.8,3.2S191.7,18.1,190.7,18.1z M190.7,17.3c0.5,0,1-0.3,1.3-0.9
			s0.5-1.5,0.5-2.8c0-1.3-0.2-2.2-0.5-2.8s-0.7-0.9-1.3-0.9c-0.5,0-1,0.3-1.3,0.9s-0.5,1.5-0.5,2.8c0,1.3,0.2,2.3,0.5,2.8
			S190.2,17.3,190.7,17.3z"/>
		<path fill="#FFFFFF" d="M197.1,17.9v-1.7h1.7v1.7H197.1z"/>
		<path fill="#FFFFFF" d="M205.2,18.1c-1,0-1.7-0.4-2.2-1.3s-0.8-2-0.8-3.2c0-1.3,0.2-2.3,0.7-3.2s1.2-1.3,2.2-1.3
			c1,0,1.7,0.4,2.2,1.3s0.8,2,0.8,3.2c0,1.3-0.3,2.4-0.8,3.2S206.1,18.1,205.2,18.1z M205.2,17.3c0.5,0,1-0.3,1.3-0.9
			s0.5-1.5,0.5-2.8c0-1.3-0.2-2.2-0.5-2.8s-0.7-0.9-1.3-0.9c-0.5,0-1,0.3-1.3,0.9s-0.5,1.5-0.5,2.8c0,1.3,0.2,2.3,0.5,2.8
			S204.6,17.3,205.2,17.3z"/>
		<path fill="#FFFFFF" d="M212.4,18.1c-1,0-1.7-0.4-2.2-1.3s-0.8-2-0.8-3.2c0-1.3,0.2-2.3,0.7-3.2s1.2-1.3,2.2-1.3
			c1,0,1.7,0.4,2.2,1.3s0.8,2,0.8,3.2c0,1.3-0.3,2.4-0.8,3.2S213.4,18.1,212.4,18.1z M212.4,17.3c0.5,0,1-0.3,1.3-0.9
			s0.5-1.5,0.5-2.8c0-1.3-0.2-2.2-0.5-2.8s-0.7-0.9-1.3-0.9c-0.5,0-1,0.3-1.3,0.9s-0.5,1.5-0.5,2.8c0,1.3,0.2,2.3,0.5,2.8
			S211.9,17.3,212.4,17.3z"/>
		<path fill="#FFFFFF" d="M219.6,18.1c-1,0-1.7-0.4-2.2-1.3s-0.8-2-0.8-3.2c0-1.3,0.2-2.3,0.7-3.2s1.2-1.3,2.2-1.3
			c1,0,1.7,0.4,2.2,1.3s0.8,2,0.8,3.2c0,1.3-0.3,2.4-0.8,3.2S220.6,18.1,219.6,18.1z M219.6,17.3c0.5,0,1-0.3,1.3-0.9
			s0.5-1.5,0.5-2.8c0-1.3-0.2-2.2-0.5-2.8s-0.7-0.9-1.3-0.9c-0.5,0-1,0.3-1.3,0.9s-0.5,1.5-0.5,2.8c0,1.3,0.2,2.3,0.5,2.8
			S219.1,17.3,219.6,17.3z"/>
		<path fill="#FFFFFF" d="M231.6,17.6v-1c0.9,0.4,1.7,0.6,2.3,0.6c0.5,0,0.9-0.1,1.2-0.3c0.3-0.2,0.4-0.4,0.4-0.7
			c0-0.2-0.1-0.3-0.2-0.5c-0.1-0.1-0.4-0.3-0.9-0.4l-1.2-0.4c-0.4-0.1-0.8-0.3-1.1-0.6c-0.3-0.3-0.4-0.6-0.4-1c0-0.5,0.2-1,0.6-1.3
			c0.4-0.3,1-0.5,1.9-0.5c0.2,0,0.5,0,0.8,0s0.7,0.1,1.3,0.2v0.9c-0.8-0.2-1.5-0.3-2.1-0.3c-0.4,0-0.8,0.1-1,0.2
			c-0.2,0.2-0.4,0.4-0.4,0.6c0,0.2,0.1,0.3,0.2,0.4c0.1,0.1,0.3,0.2,0.7,0.4l1.5,0.5c0.6,0.2,1,0.4,1.2,0.7c0.2,0.3,0.3,0.6,0.3,1
			c0,0.5-0.2,1-0.7,1.4s-1.1,0.6-2,0.6C233.2,18.1,232.4,17.9,231.6,17.6z"/>
	</g>
	<g>
		<path fill="#FFFFFF" d="M13.6,501.8v-1.4c0.3-0.4,0.6-0.8,1-1.2l0.3-0.3l0.8-0.9c0.4-0.4,0.7-0.9,1-1.3c0.2-0.4,0.4-0.8,0.4-1.2
			c0-0.4-0.1-0.7-0.4-0.9s-0.6-0.3-0.9-0.3c-0.6,0-1.2,0.2-1.8,0.5v-1.3c0.7-0.3,1.4-0.4,2.2-0.4c0.9,0,1.6,0.2,2,0.7
			c0.5,0.5,0.7,1,0.7,1.7c0,0.4-0.1,0.7-0.3,1.1c-0.2,0.3-0.5,0.8-1.1,1.3l-0.7,0.7c-0.7,0.7-1.2,1.4-1.5,2h3.5v1.4H13.6z"/>
		<path fill="#FFFFFF" d="M23.5,502c-1,0-1.8-0.4-2.3-1.2s-0.8-1.9-0.8-3.4s0.3-2.6,0.8-3.4s1.3-1.2,2.3-1.2s1.8,0.4,2.3,1.2
			s0.8,1.9,0.8,3.4s-0.3,2.6-0.8,3.4S24.5,502,23.5,502z M23.5,500.8c0.4,0,0.8-0.2,1-0.7s0.3-1.4,0.3-2.7c0-1.4-0.1-2.3-0.3-2.7
			s-0.5-0.7-1-0.7s-0.8,0.2-1,0.7s-0.3,1.4-0.3,2.7c0,1.4,0.1,2.3,0.3,2.7S23,500.8,23.5,500.8z"/>
		<path fill="#FFFFFF" d="M35.2,501.8v-8.7h1.7v3.6h0.4l2.7-3.6h1.5l-3,3.8l3.1,4.8h-2.1l-2.2-3.5h-0.4v3.5H35.2z"/>
		<path fill="#FFFFFF" d="M42,501.8v-8.7h2l1.2,3.9h0l1.2-3.9h1.9v8.7H47v-6.7h0l-1.2,4.3h-1.3l-1.2-4.3h0v6.7H42z"/>
	</g>
	<rect x="12.6" y="510.2" opacity="0.3" fill="#FFFFFF" width="143.1" height="6.2"/>
</g>
<g opacity="0.3">
	<g>
		<path fill="#FFFFFF" d="M490,465.9H0V346.8h0.8c56.3,0,125.6-32.4,168.5-78.8c28.3-30.7,55.3-54.3,80.3-70.3
			c2.8-1.8,5.6-3.5,8.3-5.1c12.8-7.7,23.9-14.4,33.3-31.7c11.2-20.6,40.7-76.1,45.6-86.4c2.9-6.1,7.5-10.4,11.2-10.4
			c1.5,0,2.7,0.7,3.6,2c2.8,4.5,0.2,15.6-7.1,30.4c-3.3,6.6-6.7,13.3-10.4,20.5c-16.4,31.8-35,67.9-28.4,84.6
			c2.8,7.2,18.5,8,40.1,9.1c6.3,0.3,13.5,0.7,21,1.3c11.2,0.8,23,2,35.5,3.3c26.1,2.7,53.2,5.4,79,5.4c2.7,0,5.4,0,8-0.1l0.8,0
			V465.9z M1.6,464.2h486.7v-242c-2.3,0.1-4.8,0.1-7.2,0.1c-25.9,0-53-2.8-79.1-5.4c-12.5-1.3-24.3-2.5-35.5-3.3
			c-7.5-0.6-14.7-0.9-21-1.3c-23.1-1.2-38.3-2-41.6-10.2c-6.9-17.4,11.1-52.2,28.5-85.9c3.7-7.1,7.2-13.9,10.4-20.5
			c10.3-20.9,8.1-27.3,7.2-28.8c-0.5-0.8-1.2-1.2-2.2-1.2c-2.6,0-6.8,3.3-9.7,9.5c-4.8,10.3-34.4,65.8-45.6,86.5
			c-9.6,17.7-20.8,24.5-33.9,32.3c-2.7,1.6-5.4,3.3-8.2,5.1c-24.9,15.9-51.8,39.4-80,70c-42.9,46.5-112.2,79.1-168.8,79.4V464.2z"/>
	</g>
	<g>
		<path fill="#FFFFFF" d="M488.5,447.9H0.8c-0.5,0-0.8-0.4-0.8-0.8s0.4-0.8,0.8-0.8h487.7c0.5,0,0.8,0.4,0.8,0.8
			S488.9,447.9,488.5,447.9z"/>
	</g>
	<g>
		<path fill="#FFFFFF" d="M216.8,436.7c-25.4,0-45-0.3-53.9-1c-39.7-3.2-160.6-4.9-161.8-4.9c-0.5,0-0.8-0.4-0.8-0.8
			c0-0.4,0.4-0.8,0.8-0.8c0,0,0,0,0,0c1.2,0,122.2,1.7,161.9,4.9c29.5,2.4,175.4-0.1,262.5-1.5c30.7-0.5,55-0.9,63-0.9
			c0.5,0,0.8,0.4,0.8,0.8s-0.4,0.8-0.8,0.8c-8,0-32.3,0.4-63,0.9C364.7,435.2,275.3,436.7,216.8,436.7z"/>
	</g>
	<g>
		<path fill="#FFFFFF" d="M225.6,420.1c-48.3,0-97.6-3.2-124.5-6.4c-33.8-4-99.3-0.1-99.9,0c-0.4,0-0.8-0.3-0.9-0.8
			c0-0.4,0.3-0.8,0.8-0.9c0.7,0,66.3-4,100.2,0c36.9,4.4,116.2,8.8,176.8,4.9c62.1-4,208.9-2.6,210.4-2.6c0.5,0,0.8,0.4,0.8,0.8
			c0,0.4-0.4,0.8-0.8,0.8c0,0,0,0,0,0c-1.5,0-148.3-1.4-210.3,2.6C261.7,419.6,243.7,420.1,225.6,420.1z"/>
	</g>
	<g>
		<path fill="#FFFFFF" d="M212.1,407c-36.7,0-71.3-2.8-91.5-8c-28.1-7.2-118.1-0.1-119,0c-0.5,0-0.8-0.3-0.9-0.7
			c0-0.4,0.3-0.8,0.7-0.9c0.9-0.1,91.2-7.2,119.5,0.1c30.4,7.8,93.7,10.3,147.3,5.7c56.7-4.8,218.6-3.3,220.2-3.3
			c0.4,0,0.8,0.4,0.8,0.8c0,0.4-0.4,0.8-0.8,0.8c0,0,0,0,0,0c-1.6,0-163.4-1.5-220.1,3.3C250.2,406.3,230.9,407,212.1,407z"/>
	</g>
	<g>
		<path fill="#FFFFFF" d="M203.4,392.2c-9.8,0-19.1-0.5-27.3-1.9c-44.1-7.5-84.6-9.9-111.2-6.8c-29.6,3.5-63,4.6-63.4,4.6
			c-0.5,0-0.8-0.3-0.8-0.8s0.3-0.8,0.8-0.8c0.3,0,33.7-1.1,63.2-4.6c26.7-3.1,67.4-0.7,111.7,6.8c25.6,4.3,61.8,0.4,90.9-2.7
			c14.6-1.6,27.2-2.9,35.6-2.9h185.6c0.5,0,0.8,0.4,0.8,0.8s-0.4,0.8-0.8,0.8H302.9c-8.3,0-20.9,1.4-35.4,2.9
			C247.5,389.7,224.3,392.2,203.4,392.2z"/>
	</g>
	<g>
		<path fill="#FFFFFF" d="M1.5,377.3c-0.4,0-0.7-0.3-0.8-0.7c-0.1-0.4,0.2-0.9,0.7-0.9c0.5-0.1,54.1-8.2,80.1-9.8
			c25.9-1.6,73.6,0.5,108.5,4.9c23,2.9,63.1-0.5,92.3-3c15-1.3,28-2.4,35.3-2.4c21.7,0,170.9,0,170.9,0v1.6c0,0-149.2,0-170.9,0
			c-7.2,0-20.2,1.1-35.2,2.4c-30.9,2.6-69.4,5.9-92.6,3c-34.8-4.3-82.3-6.5-108.1-4.9c-25.9,1.6-79.4,9.7-79.9,9.8
			C1.6,377.3,1.5,377.3,1.5,377.3z"/>
	</g>
	<g>
		<path fill="#FFFFFF" d="M1.5,366.9c-0.4,0-0.8-0.3-0.8-0.8c0-0.4,0.3-0.8,0.8-0.8c0.5,0,52-2.2,76.1-10.8
			c23.9-8.5,84-12.1,102.3-3.8c17.5,7.9,90.9,4.3,113.2,1.6c22.1-2.7,193.8-1.1,195.5-1.1c0.4,0,0.8,0.4,0.8,0.8
			c0,0.4-0.4,0.8-0.8,0.8c0,0,0,0,0,0c-1.7,0-173.3-1.6-195.3,1.1c-20.3,2.5-95.4,6.8-114-1.7c-18-8.2-77.3-4.6-101,3.8
			C53.8,364.7,2.1,366.9,1.5,366.9C1.5,366.9,1.5,366.9,1.5,366.9z"/>
	</g>
	<g>
		<path fill="#FFFFFF" d="M4.2,357.3c-1.7,0-2.7,0-2.7,0c-0.5,0-0.8-0.4-0.8-0.8c0-0.4,0.4-0.8,0.8-0.8c0.5,0,46.2,1.3,103.3-15.8
			c53.7-16.1,75.5-11.8,94.7-8c1.5,0.3,3.1,0.6,4.6,0.9c19.7,3.7,75.9,6,98.6,1.6c22.7-4.3,179.1-0.2,185.8,0c0.5,0,0.8,0.4,0.8,0.8
			c0,0.4-0.4,0.8-0.8,0.8c0,0,0,0,0,0c-1.6,0-163-4.3-185.4,0c-22.8,4.3-79.4,2.1-99.2-1.6c-1.5-0.3-3-0.6-4.6-0.9
			c-19-3.8-40.6-8.1-93.9,7.9C55.8,356.2,14.9,357.3,4.2,357.3z"/>
	</g>
	<g>
		<path fill="#FFFFFF" d="M71.9,342.1c-0.3,0-0.7-0.2-0.8-0.6c-0.1-0.4,0.1-0.9,0.5-1c0.5-0.2,50.3-15.3,69.1-21.2
			c3.3-1,6.4-2.2,9.4-3.3c14.2-5.2,27.6-10,55.7-2.3c31.7,8.7,81.6,7.4,100.8,5.4c15.6-1.6,180.2-1.6,181.9-1.6
			c0.5,0,0.8,0.4,0.8,0.8s-0.4,0.8-0.8,0.8c-1.7,0-166.2,0-181.7,1.6c-19.3,2-69.5,3.3-101.4-5.5c-27.6-7.6-40.1-3-54.7,2.3
			c-3,1.1-6.1,2.2-9.5,3.3c-18.8,5.9-68.6,21.1-69.1,21.2C72,342.1,71.9,342.1,71.9,342.1z"/>
	</g>
	<g>
		<path fill="#FFFFFF" d="M137.2,313.3c-0.3,0-0.5-0.1-0.7-0.3c-0.3-0.4-0.2-0.9,0.2-1.1c0.4-0.3,42.6-30.8,82.2-16.1
			c26.8,10,65.2,7.7,85.9,6.5c4.6-0.3,8.2-0.5,10.6-0.5h173.1c0.5,0,0.8,0.4,0.8,0.8s-0.4,0.8-0.8,0.8H315.4
			c-2.3,0-5.9,0.2-10.5,0.5c-20.8,1.2-59.5,3.5-86.6-6.6c-38.8-14.4-80.2,15.6-80.7,15.9C137.5,313.3,137.4,313.3,137.2,313.3z"/>
	</g>
	<g>
		<path fill="#FFFFFF" d="M162.8,291.7c-0.2,0-0.4-0.1-0.6-0.2c-0.3-0.3-0.3-0.8,0-1.2c0.1-0.1,9.5-9.3,20.8-18.9
			c10.9-9.3,19.6-16.6,33.3-3.5c5.6,5.3,15.9,9.5,30.8,12.3c13.8,2.6,27.7,3.4,33,3.5c9.1,0.3,76,0.3,199,0c5.4,0,8.7,0,9.3,0
			c0.5,0,0.8,0.4,0.8,0.8s-0.4,0.8-0.8,0.8c-0.6,0-3.9,0-9.3,0c-123,0.3-189.9,0.3-199,0c-11.7-0.4-50.8-2.8-64.9-16.3
			c-12.7-12.1-20-5.9-31.1,3.5c-11.3,9.6-20.7,18.7-20.7,18.8C163.2,291.6,163,291.7,162.8,291.7z"/>
	</g>
	<g>
		<path fill="#FFFFFF" d="M385.8,269.3c-23,0-43.3-0.1-52.5-0.2c-2.2,0-5.5,0-9.7,0.1c-28.1,0.3-86.5,1-97.5-16.2
			c-10.6-16.6-0.1-25.8,10.1-34.7c2.2-2,4.6-4,6.7-6.1c0.3-0.3,0.8-0.3,1.2,0c0.3,0.3,0.3,0.8,0,1.2c-2.1,2.1-4.5,4.2-6.7,6.2
			c-10.5,9.2-19.6,17.2-9.8,32.6c10.6,16.5,70.5,15.7,96.2,15.4c4.2-0.1,7.5-0.1,9.7-0.1c27.4,0.5,153.9,0,155.2,0c0,0,0,0,0,0
			c0.4,0,0.8,0.4,0.8,0.8c0,0.5-0.4,0.8-0.8,0.8C487.6,269.1,431.4,269.3,385.8,269.3z"/>
	</g>
	<g>
		<path fill="#FFFFFF" d="M488.5,255C488.5,255,488.5,255,488.5,255c-20-1-150.6-6.5-181.8-6c-31.8,0.6-56.6-0.2-63.1-15.7
			c-5.8-13.7,14.8-25.2,27.1-32.1c2-1.1,3.7-2.1,5.1-2.9c9.1-5.6,14.4-15.9,16.2-23.1c0.1-0.4,0.6-0.7,1-0.6c0.4,0.1,0.7,0.6,0.6,1
			c-1.9,7.5-7.4,18.3-16.9,24.1c-1.4,0.9-3.2,1.8-5.2,3c-11.8,6.6-31.6,17.7-26.4,30.1c6.1,14.5,30.4,15.3,61.6,14.7
			c31.3-0.5,161.9,4.9,181.9,6c0.4,0,0.8,0.4,0.8,0.9C489.3,254.6,488.9,255,488.5,255z"/>
	</g>
	<g>
		<path fill="#FFFFFF" d="M488.5,239.9C488.5,239.9,488.5,239.9,488.5,239.9c-1.2-0.1-113.7-7.5-133.1-9.1
			c-6.9-0.6-17.5,0.1-28.7,0.8c-21.1,1.4-45,2.9-55.4-2.8c-4-2.2-6.1-4.8-6.1-7.7c0-6.5,10.5-12.6,16.2-15.8c0.7-0.4,1.3-0.7,1.8-1
			c8.3-4.9,10.2-13.7,10.2-13.8c0.1-0.4,0.5-0.7,1-0.6c0.4,0.1,0.7,0.5,0.6,1c-0.1,0.4-2.1,9.6-11,14.9c-0.5,0.3-1.1,0.7-1.8,1.1
			c-5,2.9-15.4,8.8-15.4,14.4c0,2.2,1.8,4.3,5.2,6.3c10,5.5,33.6,4,54.5,2.6c11.3-0.7,22-1.4,29-0.8c19.4,1.6,131.9,9.1,133,9.1
			c0.4,0,0.8,0.4,0.8,0.9C489.3,239.5,488.9,239.9,488.5,239.9z"/>
	</g>
	<g>
		<path fill="#FFFFFF" d="M313.7,132.7c-0.1,0-0.2,0-0.3-0.1c-0.4-0.2-0.6-0.7-0.4-1.1c5.4-11.3,29.7-56.1,29.9-56.6
			c0.2-0.4,0.7-0.5,1.1-0.3c0.4,0.2,0.5,0.7,0.3,1.1c-0.2,0.5-24.5,45.2-29.9,56.5C314.3,132.5,314,132.7,313.7,132.7z"/>
	</g>
</g>
</svg>
