<?xml version="1.0" encoding="utf-8"?>
<!-- Generator: Adobe Illustrator 18.1.0, SVG Export Plug-In . SVG Version: 6.00 Build 0)  -->
<!DOCTYPE svg PUBLIC "-//W3C//DTD SVG 1.1//EN" "http://www.w3.org/Graphics/SVG/1.1/DTD/svg11.dtd">
<svg version="1.1" id="Layer_1" xmlns="http://www.w3.org/2000/svg" xmlns:xlink="http://www.w3.org/1999/xlink" x="0px" y="0px"
	 viewBox="0 0 80 280" enable-background="new 0 0 80 280" xml:space="preserve">
<path fill="#FFFFFF" d="M78.9,117.1L41.1,276l-0.7-0.2l-0.8-0.1l-0.8,0.1l-0.7,0.2L0.5,117.1l1.9-0.5l35.2,148.2L18.9,65.5l2-0.2
	l17.8,189.1V3h2v251.5L58.5,65.4l2,0.2L41.7,264.9L77,116.6L78.9,117.1z M6.3,32.5c1.2,0,2.1-0.5,2.7-1.4c0.6-1,0.9-2.2,0.9-3.7
	c0-1.5-0.3-2.7-0.9-3.7c-0.6-1-1.5-1.4-2.7-1.4c-1.2,0-2.1,0.5-2.7,1.4S2.7,26,2.7,27.5c0,1.5,0.3,2.7,0.9,3.7
	C4.3,32.1,5.2,32.5,6.3,32.5z M4.7,24.4c0.4-0.7,0.9-1,1.7-1c0.7,0,1.3,0.3,1.7,1c0.4,0.7,0.6,1.7,0.6,3.1c0,1.4-0.2,2.4-0.6,3.1
	c-0.4,0.7-1,1-1.7,1s-1.3-0.3-1.7-1c-0.4-0.7-0.6-1.7-0.6-3.1C4.1,26.1,4.3,25,4.7,24.4z M71.6,32.3h-1.1v-9.7h1.2l3.8,7.4l0,0v-7.4
	h1.1v9.7h-1.2l-3.9-7.4l0,0V32.3z"/>
</svg>
