<?xml version="1.0" encoding="utf-8"?>
<!-- Generator: Adobe Illustrator 18.1.0, SVG Export Plug-In . SVG Version: 6.00 Build 0)  -->
<!DOCTYPE svg PUBLIC "-//W3C//DTD SVG 1.1//EN" "http://www.w3.org/Graphics/SVG/1.1/DTD/svg11.dtd">
<svg version="1.1" id="Layer_1" xmlns="http://www.w3.org/2000/svg" xmlns:xlink="http://www.w3.org/1999/xlink" x="0px" y="0px"
	 viewBox="0 0 120 248" enable-background="new 0 0 120 248" xml:space="preserve">
<path fill="#010101" d="M23.6,44.3c-1,0.4-2,0.6-2.8,0.6c-0.8,0-1.7-0.2-2.4-0.7c-0.7-0.4-1.2-1-1.6-1.8c-0.5-0.8-0.6-1.7-0.6-2.6
	s0.2-1.8,0.5-2.5c0.3-0.8,0.8-1.3,1.5-1.8c0.7-0.5,1.6-0.7,2.8-0.7c0.8,0,1.7,0.1,2.5,0.3v1.5c-1-0.4-1.8-0.6-2.4-0.6
	c-0.6,0-1,0.2-1.5,0.5c-0.5,0.3-0.8,0.8-1,1.3c-0.3,0.6-0.4,1.3-0.4,2.1c0,1,0.3,1.9,0.8,2.6c0.6,0.7,1.2,1,2.1,1
	c0.8,0,1.5-0.2,2.4-0.7V44.3z M25.2,41.1v-1.2h5.3v1.2H25.2z M20,128.9c-1.2,0-2.3-0.5-2.8-1.3c-0.7-0.9-0.9-2.1-0.9-3.7
	s0.3-2.7,0.9-3.7c0.7-0.9,1.6-1.3,2.8-1.3c1.2,0,2.3,0.5,2.8,1.3c0.6,0.8,0.9,2.1,0.9,3.7s-0.3,2.7-0.9,3.7
	C22.3,128.5,21.2,128.9,20,128.9z M20,127.6c0.4,0,0.7-0.1,0.9-0.4c0.3-0.3,0.5-0.6,0.7-1.1c0.2-0.5,0.2-1.2,0.2-2.3
	c0-1-0.1-1.8-0.2-2.3s-0.4-0.8-0.7-1.1c-0.3-0.3-0.6-0.4-0.9-0.4s-0.7,0.1-0.9,0.4c-0.3,0.3-0.5,0.7-0.7,1.1s-0.2,1.2-0.2,2.3
	c0,1,0.1,1.8,0.2,2.3c0.2,0.5,0.4,0.8,0.7,1.1C19.4,127.5,19.6,127.6,20,127.6z M24.7,128.7v-9.5h1.8l3.5,6.1l0,0v-6.1h1.2v9.5h-1.7
	l-3.6-6.3l0,0v6.3H24.7z M33.3,125.3v-1.2h5.3v1.2H33.3z M19.1,213.5v-8.3h-2.8v-1.3h7.6v1.3h-2.8v8.3H19.1z M24.2,213.5l3.1-9.5
	h1.9l2.6,9.5h-2l-0.7-2.4h-2.9l-0.8,2.4H24.2z M26.6,209.9h2.2l-1-3.6L26.6,209.9z M39.6,213.3c-1,0.4-2,0.6-2.8,0.6
	c-0.8,0-1.7-0.2-2.4-0.7c-0.7-0.4-1.2-1-1.6-1.8s-0.6-1.6-0.6-2.6c0-0.9,0.2-1.8,0.5-2.5c0.3-0.8,0.8-1.3,1.5-1.8
	c0.7-0.5,1.6-0.7,2.8-0.7c0.8,0,1.7,0.1,2.5,0.3v1.5c-1-0.4-1.8-0.6-2.4-0.6c-0.6,0-1,0.2-1.5,0.5c-0.5,0.3-0.8,0.8-1,1.3
	c-0.3,0.6-0.4,1.3-0.4,2c0,1,0.3,1.9,0.8,2.6c0.6,0.8,1.2,1,2.1,1c0.8,0,1.5-0.2,2.4-0.7L39.6,213.3L39.6,213.3z M42.9,213.5v-8.3
	h-2.8v-1.3h7.6v1.3h-2.8v8.3H42.9z M18.9,148.9v-7.3h-2.7v-0.8h6.5v0.8h-2.7v7.3H18.9z M28,149.1c-0.9,0-1.8-0.4-2.3-1.2
	c-0.5-0.8-0.8-1.8-0.8-3.1c0-1.2,0.3-2.3,0.8-3.1c0.5-0.8,1.3-1.2,2.3-1.2c0.9,0,1.8,0.4,2.3,1.2c0.5,0.8,0.8,1.8,0.8,3.1
	c0,1.2-0.3,2.3-0.8,3.1C29.8,148.7,29,149.1,28,149.1z M27.9,148.2c0.7,0,1.1-0.3,1.4-0.8s0.5-1.4,0.5-2.6c0-1.1-0.2-2.1-0.5-2.6
	c-0.3-0.6-0.8-0.8-1.4-0.8c-0.7,0-1.1,0.3-1.4,0.8s-0.5,1.4-0.5,2.6c0,1.1,0.2,2.1,0.5,2.6C26.9,148,27.4,148.2,27.9,148.2z
	 M34.3,148.9v-8.2h2.3c0.5,0,0.8,0,1.2,0.1c0.5,0.1,0.9,0.3,1.2,0.7c0.3,0.4,0.4,0.8,0.4,1.4c0,0.8-0.3,1.5-0.8,2
	c-0.6,0.5-1.4,0.8-2.4,0.8h-0.8v3.3L34.3,148.9L34.3,148.9z M35.5,144.8h0.7c0.8,0,1.5-0.2,1.8-0.6c0.3-0.4,0.5-0.8,0.5-1.3
	c0-0.5-0.2-0.8-0.5-1.1c-0.2-0.1-0.3-0.2-0.5-0.2s-0.5-0.1-0.8-0.1h-1v3.3H35.5z M51,148.7v-1c0.9,0.5,1.8,0.7,2.4,0.7
	c0.3,0,0.6-0.1,0.8-0.2c0.3-0.1,0.5-0.3,0.7-0.5c0.1-0.2,0.2-0.5,0.2-0.8c0-0.6-0.3-0.9-0.9-1.3l-1.6-0.8c-0.6-0.3-0.9-0.7-1.2-0.9
	c-0.3-0.3-0.4-0.8-0.4-1.1c0-0.6,0.2-1,0.6-1.5s1-0.7,1.9-0.7c0.7,0,1.3,0.1,2.2,0.4v0.9c-0.8-0.3-1.5-0.5-2.2-0.5
	c-0.3,0-0.6,0-0.8,0.1c-0.2,0.1-0.4,0.2-0.5,0.4c-0.1,0.2-0.2,0.4-0.2,0.6c0,0.3,0.1,0.5,0.3,0.7s0.5,0.4,0.8,0.7l1.5,0.8
	c0.7,0.3,1,0.7,1.3,0.9c0.3,0.3,0.4,0.8,0.4,1.1c0,0.7-0.3,1.2-0.8,1.7c-0.5,0.5-1.2,0.7-2.2,0.7c-0.3,0-0.5,0-0.8-0.1
	C52.2,148.7,51.6,148.9,51,148.7z M59.7,148.9v-8.2h4.8v0.8h-3.7v2.6H64v0.8h-3.1v3.1h4v0.8L59.7,148.9L59.7,148.9z M73.5,148.7
	c-0.8,0.3-1.4,0.4-2.1,0.4c-0.6,0-1-0.1-1.5-0.3c-0.5-0.2-0.8-0.5-1.1-0.8c-0.4-0.4-0.7-0.8-0.8-1.4c-0.2-0.6-0.3-1.1-0.3-1.8
	c0-0.6,0.1-1.2,0.3-1.8s0.5-1,0.8-1.4c0.3-0.4,0.8-0.7,1.2-0.8s0.9-0.3,1.5-0.3c0.6,0,1.3,0.1,2,0.3v1c-0.8-0.4-1.4-0.5-2-0.5
	c-0.4,0-0.8,0.1-1,0.3c-0.4,0.2-0.6,0.4-0.8,0.8c-0.2,0.4-0.4,0.8-0.5,1.2c-0.1,0.5-0.2,0.9-0.2,1.3c0,1,0.3,1.8,0.8,2.4
	c0.3,0.3,0.6,0.6,0.9,0.8c0.4,0.2,0.8,0.3,1.2,0.3s1.1-0.1,1.8-0.4v0.8H73.5z M76.6,148.9v-8.2h2c0.8,0,1.3,0.1,1.7,0.2
	c0.4,0.2,0.6,0.4,0.8,0.8c0.2,0.3,0.3,0.7,0.3,1s-0.1,0.8-0.4,1.2c-0.3,0.4-0.7,0.8-1.3,1.1l2.5,3.8h-1.3l-2.3-3.5h-0.9v3.5
	L76.6,148.9L76.6,148.9z M77.7,144.6h0.6c0.7,0,1.1-0.2,1.4-0.6s0.5-0.8,0.5-1.2c0-0.3-0.1-0.5-0.2-0.7c-0.1-0.2-0.3-0.4-0.5-0.5
	c-0.2-0.1-0.6-0.2-1.1-0.2h-0.7L77.7,144.6L77.7,144.6z M85.2,148.9v-8.2H90v0.8h-3.7v2.6h3.1v0.8h-3.1v3.1h4v0.8L85.2,148.9
	L85.2,148.9z M95.4,148.9v-7.3h-2.7v-0.8h6.5v0.8h-2.7v7.3H95.4z"/>
</svg>
